<svg width="20" height="28" viewBox="0 0 20 28" fill="none" xmlns="http://www.w3.org/2000/svg">
    <path
        d="M15.6902 0.121421C15.8616 0.220581 15.9943 0.374964 16.0666 0.559333C16.1389 0.743703 16.1466 0.947151 16.0883 1.13642L12.9368 11.3754H18.7512C18.8791 11.3749 19.0056 11.4025 19.1216 11.4563C19.2377 11.5101 19.3405 11.5888 19.4227 11.6867C19.505 11.7847 19.5647 11.8996 19.5976 12.0232C19.6304 12.1468 19.6357 12.2762 19.6131 12.402C19.5837 12.5705 19.5056 12.7267 19.3885 12.8512L5.38848 27.7262C5.25294 27.8699 5.07276 27.9635 4.87725 27.9918C4.68174 28.0201 4.48241 27.9814 4.31169 27.882C4.14097 27.7827 4.00891 27.6284 3.93698 27.4444C3.86506 27.2604 3.85751 27.0575 3.91557 26.8687L7.06557 16.6254H1.25119C1.08016 16.6256 0.912801 16.5757 0.76982 16.4819C0.626839 16.388 0.514501 16.2543 0.446696 16.0973C0.378891 15.9402 0.358592 15.7668 0.388309 15.5984C0.418025 15.4299 0.496455 15.2739 0.613901 15.1495L14.6139 0.274547C14.7492 0.130695 14.9292 0.0368416 15.1246 0.00824645C15.32 -0.0203487 15.5193 0.0179962 15.6902 0.117046V0.121421ZM3.27828 14.8754H8.25265C8.38967 14.875 8.52487 14.9068 8.64731 14.9683C8.76975 15.0298 8.87601 15.1193 8.95749 15.2294C9.03898 15.3396 9.09341 15.4674 9.11638 15.6025C9.13935 15.7376 9.13022 15.8761 9.08973 16.007L6.69369 23.7858L16.7256 13.1283H11.7527C11.6156 13.1285 11.4804 13.0964 11.3579 13.0347C11.2355 12.9731 11.1293 12.8835 11.0478 12.7732C10.9664 12.663 10.912 12.5351 10.889 12.4C10.866 12.2648 10.8751 12.1262 10.9156 11.9952L13.3087 4.2208L3.27536 14.8783L3.27828 14.8754Z"
        fill="black" />
</svg>
