<svg width="127" height="110" viewBox="0 0 127 110" fill="none" xmlns="http://www.w3.org/2000/svg">
    <path opacity="0.1" fill-rule="evenodd" clip-rule="evenodd"
        d="M89.2845 101.898L38.334 89.7379C34.8722 88.9092 32.4277 85.8132 32.4277 82.2532V40.7488C32.4277 37.1837 34.8722 34.0877 38.334 33.2642L88.9056 21.1876C91.3968 20.5934 94.1164 21.0625 96.0212 22.7773C97.682 24.2732 98.5435 26.332 98.5435 28.4116V94.0171C98.5435 97.3477 96.6543 100.584 93.5144 101.684C92.1338 102.164 90.6702 102.231 89.2845 101.898Z"
        fill="white" />
    <path opacity="0.1" fill-rule="evenodd" clip-rule="evenodd"
        d="M89.2845 5.99892L38.334 18.1589C34.8722 18.9876 32.4277 22.0837 32.4277 25.6436V67.148C32.4277 70.7131 34.8722 73.8091 38.334 74.6327L88.9056 86.7092C91.3968 87.3034 94.1164 86.8343 96.0212 85.1195C97.682 83.6236 98.5435 81.5648 98.5435 79.4852V13.8797C98.5435 10.5491 96.6543 7.31239 93.5144 6.21262C92.1338 5.73311 90.6702 5.67056 89.2845 5.99892Z"
        fill="white" />
    <path fill-rule="evenodd" clip-rule="evenodd"
        d="M31.7269 6.03585L92.061 20.4892C95.8601 21.3961 98.5434 24.8101 98.5434 28.7296V78.6204C98.5434 82.5452 95.8601 85.9539 92.061 86.8608L31.7736 101.304C29.7651 101.783 27.6009 101.669 25.774 100.699C22.5458 98.9843 20.8486 95.8622 20.8486 92.6932V14.8809C20.8486 12.5511 21.6064 10.2004 23.2412 8.54812C25.6235 6.13488 28.8309 5.34264 31.7269 6.03585Z"
        fill="white" />
    <path
        d="M51.6669 64.9384C51.1375 65.47 50.3902 65.7775 49.6895 65.7775C49.0304 65.7775 48.4128 65.5586 47.8886 65.0687L38.9202 56.7657V63.3434C38.9202 64.8445 37.7317 66.0381 36.237 66.0381C34.7422 66.0381 33.5537 64.8445 33.5537 63.3434V35.2186C33.5537 33.7175 34.7422 32.5239 36.237 32.5239C37.7317 32.5239 38.9202 33.7175 38.9202 35.2186V50.1462L47.5824 44.1418C48.8124 43.3027 50.4836 43.5685 51.3192 44.8038C52.1963 45.9974 51.8901 47.6757 50.7016 48.5565L43.3577 53.5446L51.5372 61.097C52.5907 62.1134 52.679 63.7917 51.6669 64.9384Z"
        fill="#36414A" />
    <path
        d="M77.342 54.8684C77.342 61.05 72.3285 66.038 66.2198 66.038C63.931 66.038 61.8238 65.3292 60.0229 64.1825V74.513C60.0229 76.0141 58.8344 77.2077 57.3864 77.2077C55.8916 77.2077 54.7031 76.0141 54.7031 74.513V46.4351C54.7031 44.9757 55.8916 43.7873 57.3864 43.7873C58.5749 43.7873 59.5869 44.5796 59.9347 45.6429C61.6941 44.4076 63.8895 43.6987 66.2198 43.6987C72.3285 43.6987 77.342 48.6868 77.342 54.8684ZM72.0223 54.8684C72.0223 51.6473 69.3857 49.0412 66.2198 49.0412C63.0072 49.0412 60.4122 51.6473 60.4122 54.8684C60.4122 58.0895 63.0072 60.6956 66.2146 60.6956C69.3805 60.7008 72.0223 58.0947 72.0223 54.8684Z"
        fill="#36414A" />
    <path
        d="M83.1601 39.9459C81.6187 39.9459 80.3887 38.7106 80.3887 37.2512V37.0323C80.3887 35.4895 81.6187 34.2959 83.1601 34.2959C84.6134 34.2959 85.8434 35.4895 85.8434 37.0323V37.2512C85.8382 38.7106 84.6082 39.9459 83.1601 39.9459Z"
        fill="#36414A" />
    <path
        d="M83.1601 65.8659C81.6187 65.8659 80.3887 64.6307 80.3887 63.1296V46.0858C80.3887 44.5847 81.6187 43.3911 83.1601 43.3911C84.6134 43.3911 85.8434 44.5847 85.8434 46.0858V63.1296C85.8382 64.6307 84.6082 65.8659 83.1601 65.8659Z"
        fill="#36414A" />
</svg>
